<svg width="512" height="512" xmlns="http://www.w3.org/2000/svg" class="svg-inline--fa fa-glass-martini-alt fa-w-16">

 <g>
  <title>background</title>
  <rect fill="none" id="canvas_background" height="602" width="802" y="-1" x="-1"/>
 </g>
 <g>
  <title>Layer 1</title>
  <path id="svg_1" d="m502.05,57.6c21.25,-21.26 6.2,-57.6 -23.85,-57.6l-444.4,0c-30.05,0 -45.1,36.34 -23.85,57.6l214.05,214.04l0,192.36l-56,0c-22.09,0 -40,17.91 -40,40c0,4.42 3.58,8 8,8l240,0c4.42,0 8,-3.58 8,-8c0,-22.09 -17.91,-40 -40,-40l-56,0l0,-192.36l214.05,-214.04zm-58.28,-9.6l-48,48l-279.53,0l-48,-48l375.53,0z" fill="#800080"/>
 </g>
</svg>